<?xml version="1.0" encoding="UTF-8"?>
<svg id="Layer_1" data-name="Layer 1" xmlns="http://www.w3.org/2000/svg" viewBox="0 0 345 345">
  <defs>
    <style>
      .cls-1 {
        fill: #100f0d;
      }

      .cls-1, .cls-2 {
        stroke-width: 0px;
      }

      .cls-2 {
        fill: #fff;
      }
    </style>
  </defs>
  <path class="cls-1" d="m345,172.5C345,77.23,267.77,0,172.5,0S0,77.23,0,172.5c0,86.1,63.08,157.46,145.55,170.41v-120.54h-43.8v-49.86h43.8v-38c0-43.23,25.75-67.11,65.16-67.11,18.87,0,38.61,3.37,38.61,3.37v42.45h-21.75c-21.43,0-28.11,13.3-28.11,26.94v32.36h47.84l-7.65,49.86h-40.19v120.54c82.47-12.94,145.55-84.31,145.55-170.41"/>
  <path class="cls-2" d="m239.65,222.36l7.65-49.86h-47.84v-32.36c0-13.64,6.68-26.94,28.11-26.94h21.75v-42.45s-19.74-3.37-38.61-3.37c-39.4,0-65.16,23.88-65.16,67.11v38h-43.8v49.86h43.8v120.54c8.92,1.4,17.93,2.1,26.95,2.1,9.17,0,18.17-.72,26.95-2.1v-120.54h40.19"/>
</svg>