<?xml version="1.0" encoding="UTF-8"?>
<svg xmlns="http://www.w3.org/2000/svg" viewBox="0 0 436.8 1030.75">
  <defs>
    <style>
      .cls-1 {
        stroke: #707071;
        stroke-width: 2px;
      }

      .cls-1, .cls-2, .cls-3, .cls-4 {
        stroke-miterlimit: 10;
      }

      .cls-1, .cls-2, .cls-4 {
        fill: none;
      }

      .cls-2 {
        stroke: #f5f5f5;
        stroke-dasharray: 0 0 0 0 0 0 2 2;
      }

      .cls-2, .cls-3, .cls-4 {
        stroke-width: 3px;
      }

      .cls-3 {
        fill: #e5e5e5;
      }

      .cls-3, .cls-4 {
        opacity: .69;
        stroke: #000;
      }
    </style>
  </defs>
  <g id="BUKSMODEL">
    <path class="cls-2" d="m203.93,7.26c2.21,15.91,3.82,27.92,3.82,27.92,0,0-22.2,120.24-22.2,134.38s12.21,278.88,9.99,286.95c-2.23,8.08,4.43,302.12,4.43,302.12"/>
    <path class="cls-2" d="m285.85,8.54c-2.12,15.28-3.65,26.64-3.65,26.64,0,0,22.2,120.24,22.2,134.38s-12.21,278.88-9.99,286.95c2.23,8.08-4.43,302.12-4.43,302.12"/>
    <path class="cls-1" d="m179.04,7.46c2.71,12.06,4.61,21.29,4.61,23.4,0,7.29-29.06,55.59-31.58,65.17-2.52,9.58-14.32,54.82-14.74,78.97-.43,24.15,13.89,157.95,18.53,182.85,4.63,24.92,6.74,72.83,9.26,84.72,2.52,11.88,0,43.71-2.11,50.22s-7.15,25.3-6.31,49.84c.84,24.54,6.74,94.31,12.63,119.99,5.9,25.68,15.16,91.24,14.74,93.92s-2.52,8.82-1.68,12.26,2.11,5.37,1.68,6.91-12.21,39.49-13.05,57.89c-.84,18.39-3.36,27.99,0,30.28,3.36,2.29,6.31,1.91,6.31,1.91"/>
    <path class="cls-1" d="m110.99,10.61c-.04,7.24-.32,13.19-1.29,15.56-2.74,6.64-15.51,42.34-16.42,65.6-.91,23.26,5.47,108.78,5.47,117.91s-5.87,62.3-5.87,64.71,4.61,9.39,4.61,9.39c0,0,11.65,23.01,12.74,23.6s14.95,8.01,17.36,7.6,1.76-5.41-1.32-6-9.68-5.21-9.89-6.4-5.72-20.4-5.72-22.2,1.53-29.6,3.3-31.2,4.83,10.8,5.93,12.81,7.25,15,10.55,14.41c3.3-.59-.66-10-.66-13s1.53-28.2-1.1-31.41-10.33-12-9.68-15.2,14.5-95.43,18.72-103.87c4.22-8.44,4.2-74.75,5.9-81.65.46-1.89,1.96-10.2,3.89-21.29"/>
    <path class="cls-1" d="m179.06,856.6s-.43,12.26,2.95,14.19c3.38,1.93,6.74,1.91,6.74,1.91"/>
    <path class="cls-1" d="m189.16,865.04s-.84,14.95,2.52,16.1c3.36,1.15,7.58-1.53,7.58-1.53v-8.82s.43,12.26,5.47,12.26,6.31-1.91,6.31-1.91l-.43-12.26s2.52,17.64,9.69,17.26c7.17-.38,6.74-14.95,6.31-18.39s-2.52-14.19-2.52-19.55-1.68-18.79-2.11-21.46-1.27-17.26-1.27-19.93-3.79-34.5-3.79-34.5c0,0,2.95-6.13-.43-16.1-3.38-9.97-.84-56.35.43-73.61,1.27-17.26,8.42-143,7.58-154.11s-6.31-52.51-4.2-60.57,0-34.89-.43-52.13c-.43-17.24,11.78-107.73,13.05-134.18,1.27-26.45,5.47-95.07,5.47-95.07"/>
    <path class="cls-1" d="m114.99,298.32s6.86,4.58,8.9,4.58,12.56-2.7,13.47-3.74,1.14-3.33-2.06-3.53-12.33,2.49-13.47,1.25-9.13-8.93-9.13-8.93"/>
    <path class="cls-1" d="m110.89,281.47s7.99,6.66,10.05,6.44,13.93-.82,13.93,0-3.89,3.96-7.53,4.78-7.99,1.25-7.99,1.25"/>
    <path class="cls-1" d="m117.05,35.96s8.18,3.72,13.45,3.2"/>
    <path class="cls-1" d="m309.99,7.37c-2.72,12.1-4.63,21.38-4.63,23.49,0,7.29,29.06,55.59,31.58,65.17,2.52,9.58,14.32,54.82,14.74,78.97.43,24.15-13.89,157.95-18.53,182.85-4.63,24.9-6.74,72.83-9.26,84.72-2.52,11.88,0,43.71,2.11,50.22,2.11,6.51,7.15,25.3,6.31,49.84s-6.74,94.31-12.63,119.99c-5.88,25.68-15.16,91.24-14.74,93.92.43,2.67,2.52,8.82,1.68,12.26-.84,3.44-2.11,5.37-1.68,6.91s12.21,39.49,13.05,57.89c.84,18.39,3.36,27.99,0,30.28-3.36,2.29-6.31,1.91-6.31,1.91"/>
    <path class="cls-1" d="m378.02,7.37c-.02,8.67.18,16.09,1.3,18.8,2.74,6.64,15.51,42.34,16.42,65.6s-5.47,108.78-5.47,117.91,5.87,62.3,5.87,64.71-4.61,9.39-4.61,9.39c0,0-11.65,23.01-12.74,23.6s-14.95,8.01-17.36,7.6-1.76-5.41,1.32-6,9.67-5.21,9.89-6.4,5.72-20.4,5.72-22.2-1.53-29.6-3.3-31.2c-1.76-1.6-4.83,10.8-5.93,12.81s-7.25,15-10.55,14.41c-3.3-.59.66-10,.66-13s-1.53-28.2,1.1-31.41c2.64-3.21,10.33-12,9.67-15.2-.66-3.2-14.5-95.43-18.72-103.87s-4.2-74.75-5.9-81.65c-.5-2.03-2.19-11.5-4.34-23.86"/>
    <path class="cls-1" d="m309.96,856.6s.43,12.26-2.95,14.19c-3.38,1.93-6.74,1.91-6.74,1.91"/>
    <path class="cls-1" d="m299.85,865.04s.84,14.95-2.52,16.1c-3.36,1.15-7.58-1.53-7.58-1.53v-8.82s-.43,12.26-5.47,12.26-6.31-1.91-6.31-1.91l.43-12.26s-2.52,17.64-9.69,17.26c-7.17-.38-6.74-14.95-6.31-18.39s2.52-14.19,2.52-19.55,1.68-18.79,2.11-21.46c.43-2.67,1.27-17.26,1.27-19.93s3.79-34.5,3.79-34.5c0,0-2.95-6.13.43-16.1,3.38-9.97.84-56.35-.43-73.61-1.27-17.26-8.42-143-7.58-154.11.84-11.11,6.31-52.51,4.2-60.57-2.11-8.06,0-34.89.43-52.13.43-17.24-11.78-107.73-13.05-134.18-1.27-26.45-5.47-95.07-5.47-95.07"/>
    <path class="cls-1" d="m257.33,176.53s-2.52,11.5-12.63,11.5h-.38c-10.1,0-12.63-11.5-12.63-11.5"/>
    <path class="cls-1" d="m374.02,298.32s-6.86,4.58-8.9,4.58-12.56-2.7-13.47-3.74-1.14-3.33,2.06-3.53,12.33,2.49,13.47,1.25,9.13-8.93,9.13-8.93"/>
    <path class="cls-1" d="m378.13,281.47s-7.99,6.66-10.05,6.44-13.93-.82-13.93,0,3.89,3.96,7.53,4.78,7.99,1.25,7.99,1.25"/>
    <path class="cls-1" d="m370.23,37.09s-8.18,3.72-13.45,3.2"/>
    <path class="cls-2" d="m184.1,756.56s14.21,3.08,32.42-.38"/>
    <path class="cls-2" d="m272.49,756.16s16.48,4.24,32.42.38"/>
  </g>
  <g id="gulerod">
    <g>
      <path class="cls-3" d="m244.7,48.07c-35.74,0-65.97-10.8-65.97-10.8,0,0-43.01,73.98-46.98,126.93-3.97,52.95,20.51,295.95,19.51,297.95-1,2-3.99,4.49-3.49,6.49s3.99,4.49,3.99,6.49-3.49,4.49-3.49,6.49.5,5.99,1.5,8.49,25.28,269.88,25.28,269.88c0,0,20.98,6.26,24.21,5.19s23.34-2.59,23.34-2.59l13.66-280.43-3.22-8.59,2.15-10.74-3.22-15.04,12.3-238.95"/>
      <line class="cls-4" x1="133.69" y1="150.59" x2="188.02" y2="62.11"/>
      <path class="cls-3" d="m244.7,48.07c35.74,0,65.56-10.8,65.56-10.8,0,0,43.64,69.12,47.61,122.07,3.97,52.95-21.14,300.82-20.14,302.81s3.99,4.49,3.49,6.49-3.99,4.49-3.99,6.49c0,2,3.49,4.49,3.49,6.49s-.5,5.99-1.5,8.49-26.74,274.2-26.74,274.2c0,0-19.42,7.3-22.64,6.23-3.22-1.07-24.91-7.09-24.91-7.09l-12.2-281.3,3.22-8.59-2.15-10.74,3.22-15.04-12.3-238.95"/>
      <path class="cls-4" d="m322.06,57.39c-25.58,9.17-77.85,12.23-77.85,12.23h.56s-52.27-3.06-77.85-12.23"/>
      <line class="cls-4" x1="356.89" y1="151.08" x2="300.95" y2="62.11"/>
    </g>
  </g>
</svg>