<?xml version="1.0" encoding="UTF-8"?>
<svg id="Layer_2" data-name="Layer 2" xmlns="http://www.w3.org/2000/svg" viewBox="0 0 185.98 462.44">
  <defs>
    <style>
      .cls-1 {
        stroke: #707071;
        stroke-width: 2px;
      }

      .cls-1, .cls-2, .cls-3 {
        fill: none;
        stroke-miterlimit: 10;
      }

      .cls-2 {
        stroke: #de6026;
      }

      .cls-2, .cls-3 {
        stroke-dasharray: 0 0 0 0 0 0 2 2;
        stroke-width: 3px;
      }

      .cls-3 {
        stroke: #f5f5f5;
      }
    </style>
  </defs>
  <path class="cls-3" d="m53.71,76.32s7.55,55.36,7.55,58.43-2.02,7.36,0,15.33,9.43,63.14,9.43,63.14c0,0-13.47,72.95-13.47,81.53,0,7.44,5.58,129.36,6.17,164.69"/>
  <path class="cls-3" d="m132.84,76.32s-7.55,55.36-7.55,58.43,2.02,7.36,0,15.33-9.43,63.14-9.43,63.14c0,0,13.47,72.95,13.47,81.53,0,7.51-5.67,131.42-6.19,165.56"/>
  <path class="cls-1" d="m75.46,41.07s.86,24.59-.38,26.74-10.35,5.94-21.37,8.5-25.31,6.55-28.35,9.83-9,10.55-8.89,17.31-3.05,63.98-4.16,71.54.55,28.72-1.11,32.75S1.79,233.44,1.24,247.55s3.32,66,3.32,71.54-3.56,37.8-3.56,39.26,2.8,5.7,2.8,5.7c0,0,7.07,13.96,7.73,14.32s9.07,4.86,10.53,4.61,1.07-3.28-.8-3.64-5.87-3.16-6-3.88-3.47-12.38-3.47-13.47.93-17.96,2-18.93,2.93,6.55,3.6,7.77,4.4,9.1,6.4,8.74-.4-6.07-.4-7.89.93-17.11-.67-19.06-6.27-7.28-5.87-9.22,8.8-57.9,11.36-63.02,2.55-45.35,3.58-49.54,8.98-61.41,8.98-61.41c0,0,15.3,56.75,15.3,61.17s-17.63,33.73-19.16,39.54-8.69,33.26-8.94,47.91c-.26,14.65,8.43,95.83,11.24,110.94,2.63,14.17,3.92,40.58,5.33,49.79"/>
  <path class="cls-1" d="m78.68,459.72c-.2-5.35-.51-11.02-.63-15.59-.26-10.46,7.15-65.36,7.92-81.41.77-16.05,3.32-57.68,3.32-57.68"/>
  <path class="cls-1" d="m14.41,372.87s4.16,2.78,5.4,2.78,7.62-1.64,8.17-2.27.69-2.02-1.25-2.14-7.48,1.51-8.17.76-5.54-5.42-5.54-5.42"/>
  <path class="cls-1" d="m11.92,362.65s4.85,4.04,6.1,3.91,8.45-.5,8.45,0-2.36,2.4-4.57,2.9-4.85.76-4.85.76"/>
  <path class="cls-1" d="m87.19,139.44c0,11.02-11.61,19.12-19.03,19.8s-13.59-.9-22.73-7.42-7.17-23.39-7.17-23.39"/>
  <path class="cls-1" d="m15.66,213.69s4.96,2.26,8.16,1.94"/>
  <path class="cls-1" d="m110.76,41.07s-1.1,24.59.14,26.74,10.35,5.94,21.37,8.5c11.02,2.56,25.31,6.55,28.35,9.83s9,10.55,8.89,17.31,3.05,63.98,4.16,71.54-.55,28.72,1.11,32.75,9.41,25.69,9.96,39.8-3.32,66-3.32,71.54,3.56,37.8,3.56,39.26-2.8,5.7-2.8,5.7c0,0-7.07,13.96-7.73,14.32s-9.07,4.86-10.53,4.61-1.07-3.28.8-3.64,5.87-3.16,6-3.88,3.47-12.38,3.47-13.47-.93-17.96-2-18.93-2.93,6.55-3.6,7.77-4.4,9.1-6.4,8.74.4-6.07.4-7.89-.93-17.11.67-19.06,6.27-7.28,5.87-9.22-8.8-57.9-11.36-63.02-2.55-45.35-3.58-49.54-9.06-60.49-9.06-60.49c0,0-15.22,55.83-15.22,60.25s17.63,33.73,19.16,39.54,8.69,33.26,8.94,47.91c.26,14.65-8.43,95.83-11.24,110.94s-4.09,44.19-5.62,51.4c-.12.57-.22,1.22-.31,1.93"/>
  <path class="cls-1" d="m107.27,460.69c.2-5.63.54-11.72.66-16.56.26-10.46-7.15-65.36-7.92-81.41s-3.32-57.68-3.32-57.68"/>
  <path class="cls-1" d="m100.77,298.98s-1.53,6.98-7.66,6.98h-.23c-6.13,0-7.66-6.98-7.66-6.98"/>
  <path class="cls-1" d="m171.57,372.87s-4.16,2.78-5.4,2.78-7.62-1.64-8.17-2.27-.69-2.02,1.25-2.14,7.48,1.51,8.17.76,5.54-5.42,5.54-5.42"/>
  <path class="cls-1" d="m174.06,362.65s-4.85,4.04-6.1,3.91-8.45-.5-8.45,0,2.36,2.4,4.57,2.9,4.85.76,4.85.76"/>
  <path class="cls-1" d="m147.71,128.42s1.98,16.87-7.17,23.39c-9.14,6.52-15.32,8.1-22.73,7.42s-19.03-8.77-19.03-19.8"/>
  <path class="cls-1" d="m127.7,90.63c-2.97-.9-22.98-6.3-25.2-5.17s-5.44,5.85-8.9,5.85h-1.22c-3.46,0-6.67-4.72-8.9-5.85s-22.24,4.27-25.2,5.17"/>
  <path class="cls-1" d="m169.27,214.38s-4.96,2.26-8.16,1.94"/>
  <path class="cls-2" d="m56.09,210.6s18.62,2.66,36.73,2.66,37.07-2.66,37.07-2.66"/>
  <path class="cls-2" d="m27.98,298.05s40.53,6.02,65.07,6.02,64.44-3.76,64.44-3.76"/>
  <path class="cls-2" d="m37.78,135.39s39.44,1.25,55.27,1.25,54.58-1.67,54.58-1.67"/>
  <path class="cls-1" d="m63.41.11h0c1.58,14.98,5.39,33.42,9.74,38.37,6.54,7.44,13.09,11.91,18.81,11.91h2.05c5.73,0,12.27-4.47,18.81-11.91,4.35-4.95,8.16-23.39,9.74-38.37h0"/>
</svg>