<?xml version="1.0" encoding="UTF-8"?>
<svg id="Layer_2" data-name="Layer 2" xmlns="http://www.w3.org/2000/svg" viewBox="0 0 185.98 769.33">
  <defs>
    <style>
      .cls-1 {
        stroke: #707071;
        stroke-width: 2px;
      }

      .cls-1, .cls-2, .cls-3 {
        fill: none;
        stroke-miterlimit: 10;
      }

      .cls-2 {
        stroke: #de6026;
      }

      .cls-2, .cls-3 {
        stroke-dasharray: 0 0 0 0 0 0 2 2;
        stroke-width: 3px;
      }

      .cls-3 {
        stroke: #f5f5f5;
      }
    </style>
  </defs>
  <path class="cls-3" d="m53.71,115.14s7.55,55.36,7.55,58.43-2.02,7.36,0,15.33,9.43,63.14,9.43,63.14c0,0-13.47,72.95-13.47,81.53s7.41,169.2,6.06,174.1,2.69,183.3,2.69,183.3"/>
  <path class="cls-3" d="m132.84,115.14s-7.55,55.36-7.55,58.43,2.02,7.36,0,15.33-9.43,63.14-9.43,63.14c0,0,13.47,72.95,13.47,81.53s-7.41,169.2-6.06,174.1-2.69,183.3-2.69,183.3"/>
  <path class="cls-1" d="m75.42,81.14s.9,23.35-.34,25.5-10.35,5.94-21.37,8.5-25.31,6.55-28.35,9.83-9,10.55-8.89,17.31-3.05,63.98-4.16,71.54.55,28.72-1.11,32.75-9.41,25.69-9.96,39.8,3.32,66,3.32,71.54-3.56,37.8-3.56,39.26,2.8,5.7,2.8,5.7c0,0,7.07,13.96,7.73,14.32s9.07,4.86,10.53,4.61,1.07-3.28-.8-3.64-5.87-3.16-6-3.88-3.47-12.38-3.47-13.47.93-17.96,2-18.93,2.93,6.55,3.6,7.77,4.4,9.1,6.4,8.74-.4-6.07-.4-7.89.93-17.11-.67-19.06-6.27-7.28-5.87-9.22,8.8-57.9,11.36-63.02,2.55-45.35,3.58-49.54,10.48-60.71,10.48-60.71c0,0,13.8,56.05,13.8,60.47s-17.63,33.73-19.16,39.54-8.69,33.26-8.94,47.91c-.26,14.65,8.43,95.83,11.24,110.94,2.81,15.12,4.09,44.19,5.62,51.4,1.53,7.21,0,26.52-1.28,30.47s-4.34,15.35-3.83,30.24,4.09,57.22,7.66,72.8c3.58,15.58,9.2,55.36,8.94,56.98s-1.53,5.35-1.02,7.44,1.28,3.26,1.02,4.19-7.41,23.96-7.92,35.12-2.04,16.98,0,18.37,3.83,1.16,3.83,1.16"/>
  <path class="cls-1" d="m53.28,750.41s-.26,7.44,1.79,8.61,4.09,1.16,4.09,1.16"/>
  <path class="cls-1" d="m59.41,755.53s-.51,9.07,1.53,9.77,4.6-.93,4.6-.93v-5.35s.26,7.44,3.32,7.44,3.83-1.16,3.83-1.16l-.26-7.44s1.53,10.7,5.88,10.47,4.09-9.07,3.83-11.16-1.53-8.61-1.53-11.86-1.02-11.4-1.28-13.02-.77-10.47-.77-12.09-2.3-20.93-2.3-20.93c0,0,1.79-3.72-.26-9.77s-.51-34.19.26-44.66c.77-10.47,5.11-86.76,4.6-93.5s-3.83-31.86-2.55-36.75,0-21.17-.26-31.63,7.15-65.36,7.92-81.41c.77-16.05,3.32-57.68,3.32-57.68"/>
  <path class="cls-1" d="m14.41,411.69s4.16,2.78,5.4,2.78,7.62-1.64,8.17-2.27.69-2.02-1.25-2.14-7.48,1.51-8.17.76-5.54-5.42-5.54-5.42"/>
  <path class="cls-1" d="m11.92,401.47s4.85,4.04,6.1,3.91,8.45-.5,8.45,0-2.36,2.4-4.57,2.9-4.85.76-4.85.76"/>
  <path class="cls-1" d="m87.19,178.26c0,11.02-11.61,19.12-19.03,19.8s-13.59-.9-22.73-7.42-7.17-23.39-7.17-23.39"/>
  <path class="cls-1" d="m15.66,252.51s4.96,2.26,8.16,1.94"/>
  <path class="cls-1" d="m94.01,1c11.86,0,27.39,9.31,29.03,20.1s-3.68,48.76-10.22,56.2c-6.54,7.44-13.08,11.91-18.81,11.91h-2.05c-5.72,0-12.27-4.47-18.81-11.91s-11.86-45.41-10.22-56.2S80.1,1,91.96,1c0,0,2.05,0,2.05,0Z"/>
  <path class="cls-1" d="m110.56,81.14s-.9,23.35.34,25.5,10.35,5.94,21.37,8.5c11.02,2.56,25.31,6.55,28.35,9.83s9,10.55,8.89,17.31,3.05,63.98,4.16,71.54-.55,28.72,1.11,32.75,9.41,25.69,9.96,39.8-3.32,66-3.32,71.54,3.56,37.8,3.56,39.26-2.8,5.7-2.8,5.7c0,0-7.07,13.96-7.73,14.32s-9.07,4.86-10.53,4.61-1.07-3.28.8-3.64,5.87-3.16,6-3.88,3.47-12.38,3.47-13.47-.93-17.96-2-18.93-2.93,6.55-3.6,7.77-4.4,9.1-6.4,8.74.4-6.07.4-7.89-.93-17.11.67-19.06,6.27-7.28,5.87-9.22-8.8-57.9-11.36-63.02-2.55-45.35-3.58-49.54-10.48-60.71-10.48-60.71c0,0-13.8,56.05-13.8,60.47s17.63,33.73,19.16,39.54,8.69,33.26,8.94,47.91c.26,14.65-8.43,95.83-11.24,110.94s-4.09,44.19-5.62,51.4c-1.53,7.21,0,26.52,1.28,30.47s4.34,15.35,3.83,30.24-4.09,57.22-7.66,72.8-9.2,55.36-8.94,56.98,1.53,5.35,1.02,7.44-1.28,3.26-1.02,4.19,7.41,23.96,7.92,35.12,2.04,16.98,0,18.37-3.83,1.16-3.83,1.16"/>
  <path class="cls-1" d="m132.7,750.41s.26,7.44-1.79,8.61-4.09,1.16-4.09,1.16"/>
  <path class="cls-1" d="m126.57,755.53s.51,9.07-1.53,9.77-4.6-.93-4.6-.93v-5.35s-.26,7.44-3.32,7.44-3.83-1.16-3.83-1.16l.26-7.44s-1.53,10.7-5.88,10.47-4.09-9.07-3.83-11.16,1.53-8.61,1.53-11.86,1.02-11.4,1.28-13.02.77-10.47.77-12.09,2.3-20.93,2.3-20.93c0,0-1.79-3.72.26-9.77s.51-34.19-.26-44.66c-.77-10.47-5.11-86.76-4.6-93.5s3.83-31.86,2.55-36.75,0-21.17.26-31.63-7.15-65.36-7.92-81.41-3.32-57.68-3.32-57.68"/>
  <path class="cls-1" d="m100.77,337.8s-1.53,6.98-7.66,6.98h-.23c-6.13,0-7.66-6.98-7.66-6.98"/>
  <path class="cls-1" d="m171.57,411.69s-4.16,2.78-5.4,2.78-7.62-1.64-8.17-2.27-.69-2.02,1.25-2.14,7.48,1.51,8.17.76,5.54-5.42,5.54-5.42"/>
  <path class="cls-1" d="m174.06,401.47s-4.85,4.04-6.1,3.91-8.45-.5-8.45,0,2.36,2.4,4.57,2.9,4.85.76,4.85.76"/>
  <path class="cls-1" d="m147.71,167.24s1.98,16.87-7.17,23.39c-9.14,6.52-15.32,8.1-22.73,7.42s-19.03-8.77-19.03-19.8"/>
  <path class="cls-1" d="m127.7,129.45c-2.97-.9-22.98-6.3-25.2-5.17s-5.44,5.85-8.9,5.85h-1.22c-3.46,0-6.67-4.72-8.9-5.85s-22.24,4.27-25.2,5.17"/>
  <path class="cls-1" d="m169.27,253.2s-4.96,2.26-8.16,1.94"/>
  <path class="cls-2" d="m56.09,249.42s18.62,2.66,36.73,2.66,37.07-2.66,37.07-2.66"/>
  <path class="cls-2" d="m27.98,336.87s40.53,6.02,65.07,6.02,64.44-3.76,64.44-3.76"/>
  <path class="cls-2" d="m37.78,174.21s39.44,1.25,55.27,1.25,54.58-1.67,54.58-1.67"/>
  <path class="cls-2" d="m26.63,127.59s48.11,1.25,67.42,1.25,66.57-1.67,66.57-1.67"/>
  <path class="cls-3" d="m56.34,689.71s8.62,1.87,19.67-.23"/>
  <path class="cls-3" d="m109.97,689.47s10,2.57,19.67.23"/>
  <line class="cls-2" x1="93.18" y1="699.85" x2="92.17" y2="347.14"/>
</svg>