<?xml version="1.0" encoding="UTF-8"?>
<svg xmlns="http://www.w3.org/2000/svg" viewBox="0 0 488.75 1152.7">
  <defs>
    <style>
      .cls-1 {
        stroke: #707071;
        stroke-width: 2px;
      }

      .cls-1, .cls-2 {
        fill: none;
      }

      .cls-1, .cls-2, .cls-3 {
        stroke-miterlimit: 10;
      }

      .cls-2 {
        stroke: #f5f5f5;
        stroke-dasharray: 0 0 0 0 0 0 2 2;
      }

      .cls-2, .cls-3 {
        stroke-width: 3px;
      }

      .cls-3 {
        fill: #e5e5e5;
        opacity: .69;
        stroke: #000;
      }
    </style>
  </defs>
  <g id="Layer_2" data-name="Layer 2">
    <path class="cls-2" d="m136.28,146.43s14.5,106.29,14.5,112.19-3.88,14.13,0,29.43,18.11,121.23,18.11,121.23c0,0-25.86,140.07-25.86,156.54,0,14.29,10.71,248.38,11.85,316.22"/>
    <path class="cls-2" d="m288.21,146.43s-14.5,106.29-14.5,112.19,3.88,14.13,0,29.43c-3.88,15.3-18.11,121.23-18.11,121.23,0,0,25.86,140.07,25.86,156.54,0,14.41-10.89,252.33-11.88,317.89"/>
    <path class="cls-1" d="m178.03,78.76s1.66,47.22-.72,51.35c-2.38,4.13-19.87,11.41-41.03,16.32-21.16,4.92-48.6,12.58-54.43,18.87-5.84,6.3-17.28,20.26-17.07,33.24s-5.86,122.84-7.99,137.36,1.06,55.14-2.13,62.88-18.07,49.33-19.12,76.42,6.37,126.72,6.37,137.36-6.84,72.58-6.84,75.38,5.38,10.94,5.38,10.94c0,0,13.57,26.8,14.84,27.5s17.41,9.33,20.22,8.85,2.05-6.3-1.54-6.99c-3.59-.69-11.27-6.07-11.52-7.45s-6.66-23.77-6.66-25.86,1.79-34.48,3.84-36.35,5.63,12.58,6.91,14.92c1.29,2.34,8.45,17.47,12.29,16.78s-.77-11.65-.77-15.15,1.79-32.85-1.29-36.6-12.04-13.98-11.27-17.7,16.9-111.17,21.81-121,4.9-87.07,6.87-95.12,17.24-117.91,17.24-117.91c0,0,29.38,108.96,29.38,117.45s-33.85,64.76-36.79,75.92-16.69,63.86-17.17,91.99c-.5,28.13,16.19,184,21.58,213.01,5.06,27.2,7.53,77.92,10.24,95.59"/>
    <path class="cls-1" d="m184.21,882.59c-.39-10.27-.98-21.17-1.2-29.93-.5-20.08,13.73-125.49,15.21-156.31,1.48-30.82,6.37-110.75,6.37-110.75"/>
    <path class="cls-1" d="m60.82,715.82s7.99,5.34,10.37,5.34,14.63-3.15,15.69-4.36,1.32-3.88-2.4-4.11c-3.72-.23-14.36,2.9-15.69,1.46s-10.64-10.41-10.64-10.41"/>
    <path class="cls-1" d="m56.04,696.2s9.31,7.76,11.71,7.51c2.4-.25,16.22-.96,16.22,0s-4.53,4.61-8.77,5.57c-4.24.96-9.31,1.46-9.31,1.46"/>
    <path class="cls-1" d="m200.56,267.62c0,21.16-22.29,36.71-36.54,38.02s-26.09-1.73-43.64-14.25c-17.55-12.52-13.77-44.91-13.77-44.91"/>
    <path class="cls-1" d="m63.22,410.19s9.52,4.34,15.67,3.72"/>
    <path class="cls-1" d="m245.8,78.76s-2.1,47.22.28,51.35,19.87,11.41,41.03,16.32c21.16,4.92,48.6,12.58,54.43,18.87s17.28,20.26,17.07,33.24c-.21,12.98,5.86,122.84,7.99,137.36,2.13,14.52-1.06,55.14,2.13,62.88,3.19,7.74,18.07,49.33,19.12,76.42,1.06,27.09-6.37,126.72-6.37,137.36s6.84,72.58,6.84,75.38-5.38,10.94-5.38,10.94c0,0-13.57,26.8-14.84,27.5-1.27.69-17.41,9.33-20.22,8.85-2.8-.48-2.05-6.3,1.54-6.99,3.59-.69,11.27-6.07,11.52-7.45s6.66-23.77,6.66-25.86-1.79-34.48-3.84-36.35-5.63,12.58-6.91,14.92-8.45,17.47-12.29,16.78.77-11.65.77-15.15-1.79-32.85,1.29-36.6c3.07-3.74,12.04-13.98,11.27-17.7s-16.9-111.17-21.81-121c-4.92-9.83-4.9-87.07-6.87-95.12-1.98-8.04-17.39-116.14-17.39-116.14,0,0-29.23,107.19-29.23,115.68s33.85,64.76,36.79,75.92c2.94,11.16,16.69,63.86,17.17,91.99.5,28.13-16.19,184-21.58,213.01-5.4,29.01-7.85,84.85-10.79,98.69-.23,1.1-.43,2.35-.59,3.71"/>
    <path class="cls-1" d="m239.11,884.45c.39-10.81,1.04-22.49,1.27-31.79.5-20.08-13.73-125.49-15.21-156.31s-6.37-110.75-6.37-110.75"/>
    <path class="cls-1" d="m226.63,573.95s-2.94,13.4-14.71,13.4h-.44c-11.77,0-14.71-13.4-14.71-13.4"/>
    <path class="cls-1" d="m362.57,715.82s-7.99,5.34-10.37,5.34-14.63-3.15-15.69-4.36-1.32-3.88,2.4-4.11c3.72-.23,14.36,2.9,15.69,1.46s10.64-10.41,10.64-10.41"/>
    <path class="cls-1" d="m367.35,696.2s-9.31,7.76-11.71,7.51c-2.4-.25-16.22-.96-16.22,0s4.53,4.61,8.77,5.57c4.24.96,9.31,1.46,9.31,1.46"/>
    <path class="cls-1" d="m316.76,246.47s3.8,32.39-13.77,44.91c-17.55,12.52-29.42,15.55-43.64,14.25-14.23-1.31-36.54-16.84-36.54-38.02"/>
    <path class="cls-1" d="m278.34,173.91c-5.7-1.73-44.12-12.1-48.39-9.93-4.26,2.17-10.45,11.23-17.09,11.23h-2.34c-6.64,0-12.81-9.06-17.09-11.23s-42.7,8.2-48.39,9.93"/>
    <path class="cls-1" d="m358.16,411.51s-9.52,4.34-15.67,3.72"/>
    <path class="cls-1" d="m154.9.11h0c3.04,28.76,10.35,64.17,18.7,73.67,12.56,14.29,25.13,22.87,36.12,22.87h3.94c11,0,23.56-8.58,36.12-22.87,8.35-9.5,15.66-44.91,18.7-73.67h0"/>
  </g>
  <g id="Normal">
    <path class="cls-3" d="m212.83,175.15c30,0,34.62-43.85,34.62-43.85l87.69,24.23s-16.15,125.77-15,137.31c0,0-30,100.39-27.69,110.77,2.31,10.38,49.28,87.9,52.74,147.9,3.46,60-1.15,120.95-1.15,120.95h-130.05s-6.69,0-6.69,0H77.25s-4.62-62.92-1.15-122.92c3.46-60,50.43-135.55,52.74-145.93s-27.69-110.77-27.69-110.77c1.15-11.54-15-137.31-15-137.31l87.69-24.23s4.62,43.85,34.62,43.85h4.39Z"/>
  </g>
</svg>