<?xml version="1.0" encoding="UTF-8"?>
<svg id="Layer_4" data-name="Layer 4" xmlns="http://www.w3.org/2000/svg" viewBox="0 0 79.26 77.74">
  <defs>
    <style>
      .cls-1 {
        fill: none;
        stroke: #010101;
        stroke-dasharray: 0 0 0 0 0 0 1.48 1.48;
        stroke-miterlimit: 10;
        stroke-width: .3px;
      }

      .cls-2 {
        fill: #fff;
      }

      .cls-2, .cls-3 {
        stroke-width: 0px;
      }

      .cls-3 {
        fill: #010101;
      }
    </style>
  </defs>
  <g>
    <path class="cls-3" d="m55.58,61.68l7.15-23.08c2.19-7.17,3.09-13.49,4.91-12.92,2.32.73-1.04,6.64-3.64,14.05l-8.42,21.94"/>
    <path class="cls-2" d="m65.82,31.19s.35-4.72,1.52-3.91c1.17.82-1.52,3.91-1.52,3.91Z"/>
  </g>
  <path class="cls-1" d="m.09,36.14s5.21,3.87,10.91,0c5.55-3.77,8.44-6.03,12.67-3.83s8.99,7.01,11.92,7.01c2.22,0,7.1.28,9.06-5.92,1.12-3.55.82-7.27.82-7.27,0,0-.18-3.34-2.39-4.16-3.73-1.37-2.52,4.48-2.52,4.48,0,0-4.26-5.02-4.94-1.69-.48,2.32,1.94,4.35,3.98,5.89,2.34,1.76,2.38,2.03,5.05,2.75,2.68.72,5.75-.74,5.75-.74,0,0,11.08-4.24,14.69-3.66,3.75.6,9.75.85,14.04,9.37"/>
</svg>